Coordinates
version=1
nRows=4
nColumns=69
inDegrees=yes

Units are S.I. units (second, meters, Newtons, ...)
If the header above contains a line with 'inDegrees', this indicates whether rotational values are in degrees (yes) or radians (no).

endheader
time	pelvis_tilt	pelvis_list	pelvis_rotation	pelvis_tx	pelvis_ty	pelvis_tz	hip_flexion_r	hip_adduction_r	hip_rotation_r	knee_angle_r	knee_angle_r_beta	ankle_angle_r	subtalar_angle_r	mtp_angle_r	hip_flexion_l	hip_adduction_l	hip_rotation_l	knee_angle_l	knee_angle_l_beta	ankle_angle_l	subtalar_angle_l	mtp_angle_l	L5_S1_Flex_Ext	L5_S1_Lat_Bending	L5_S1_axial_rotation	L4_L5_Flex_Ext	L4_L5_Lat_Bending	L4_L5_axial_rotation	L3_L4_Flex_Ext	L3_L4_Lat_Bending	L3_L4_axial_rotation	L2_L3_Flex_Ext	L2_L3_Lat_Bending	L2_L3_axial_rotation	L1_L2_Flex_Ext	L1_L2_Lat_Bending	L1_L2_axial_rotation	L1_T12_Flex_Ext	L1_T12_Lat_Bending	L1_T12_axial_rotation	Abs_r3	Abs_r2	Abs_r1	Abs_t1	Abs_t2	neck_flexion	neck_bending	neck_rotation	sh_tx_r	sh_ty_r	sh_tz_r	sh_plane_elev_r	sh_elev_r	sh_axial_rot_r	elbow_flex_r	pro_sup_r	wrist_flex_r	wrist_dev_r	sh_tx_l	sh_ty_l	sh_tz_l	sh_plane_elev_l	sh_elev_l	sh_axial_rot_l	elbow_flex_l	pro_sup_l	wrist_flex_l	wrist_dev_l
      0.40000000	    -14.55292230	      3.92257833	   -103.09350144	     -0.06527831	      0.91058195	     -1.18965473	     36.12661937	     -6.39392766	    -14.78006654	     76.08177764	      1.32787752	     25.28958438	     -0.17493188	      0.00000000	     37.54081892	     -9.71121541	     13.37331540	     59.81629315	      1.04399126	     21.67883451	    -19.21038092	      0.00000000	     -0.05535110	     -1.58503603	     -0.41709724	     -0.10279253	     -2.10809793	     -0.44316581	     -0.09093633	     -3.85385661	     -0.44316581	     -0.06326078	     -3.85385661	     -0.36496008	     -0.05139903	     -3.23220548	     -0.33889150	     -0.03162762	     -2.45522082	     -0.31282293	     -0.39536739	    -17.93024463	     -2.31976970	      0.00000000	      0.00000000	      0.00000000	      0.00000000	      0.00000001	      0.00985069	     -0.01860187	     -0.00194456	    -12.48830131	     30.50042329	    -14.30371083	     91.48529398	     89.99559364	      0.00000000	      0.00000000	     -0.00968486	     -0.01909455	     -0.00129805	     -6.88607033	     30.60300480	      1.29757566	     24.59756928	     89.99559364	      0.00000000	      0.00000000
      0.41666670	    -15.81506672	      4.62847660	   -103.13587870	     -0.06866071	      0.90819552	     -1.18400235	     38.13219506	     -7.12590789	    -14.82648990	     74.13121982	      1.29383386	     23.20451104	      0.07586252	      0.00000000	     38.75969501	    -11.51424037	     13.56736637	     61.38155678	      1.07131027	     21.09498295	    -19.16431448	      0.00000000	     -0.06240999	     -1.56194246	     -0.47138353	     -0.11590159	     -2.07738347	     -0.50084500	     -0.10253337	     -3.79770690	     -0.50084500	     -0.07132837	     -3.79770690	     -0.41246059	     -0.05795391	     -3.18511306	     -0.38299912	     -0.03566107	     -2.41944887	     -0.35353765	     -0.44578830	    -17.66900549	     -2.62169377	      0.00000000	      0.00000000	      0.00000000	      0.00000000	      0.00000001	      0.00901693	     -0.01851603	     -0.00195701	    -12.75176490	     31.50158920	    -15.32193905	     93.38186796	     89.99559364	      0.00000000	      0.00000000	     -0.00661573	     -0.01903839	     -0.00134384	     -6.32256680	     31.45224538	      1.06264453	     25.72333050	     89.99559364	      0.00000000	      0.00000000
      0.43333330	    -17.17193160	      5.13180261	   -102.87807049	     -0.07156988	      0.90680306	     -1.17570954	     39.11175546	     -7.82860223	    -14.98885061	     71.51583059	      1.24818671	     20.75903792	     -0.07299061	      0.00000000	     39.50501510	    -13.23565175	     13.97936524	     62.62459646	      1.09300540	     20.62898270	    -19.11828824	      0.00000000	     -0.06699347	     -1.52500407	     -0.49724908	     -0.12441357	     -2.02825541	     -0.52832714	     -0.11006357	     -3.70789489	     -0.52832714	     -0.07656684	     -3.70789489	     -0.43509294	     -0.06221013	     -3.10978830	     -0.40401487	     -0.03828007	     -2.36223130	     -0.37293681	     -0.47852765	    -17.25115103	     -2.76555018	      0.00000000	      0.00000000	      0.00000000	      0.00000000	      0.00000001	      0.00783529	     -0.01842284	     -0.00198778	    -13.40642263	     32.40617198	    -15.98886373	     94.73256383	     89.99559364	      0.00000000	      0.00000000	     -0.00329629	     -0.01898940	     -0.00138136	     -5.94624846	     32.06490216	      0.56726038	     26.64122460	     89.99559364	      0.00000000	      0.00000000
      0.45000000	    -18.33621269	      5.39039483	   -102.30455789	     -0.07398466	      0.90610165	     -1.16616961	     39.33984829	     -8.78933140	    -15.06923746	     68.58920519	      1.19710746	     18.34597391	     -0.43867473	      0.00000000	     39.73649419	    -14.52874195	     14.50019678	     63.41233578	      1.10675405	     20.34140781	    -19.11531582	      0.00000000	     -0.06880403	     -1.51101134	     -0.54122646	     -0.12777597	     -2.00964508	     -0.57505312	     -0.11303815	     -3.67387297	     -0.57505312	     -0.07863613	     -3.67387297	     -0.47357316	     -0.06389143	     -3.08125432	     -0.43974650	     -0.03931463	     -2.34055657	     -0.40591985	     -0.49146034	    -17.09286248	     -3.01013923	      0.00000000	      0.00000000	      0.00000000	      0.00000000	      0.00000001	      0.00648145	     -0.01834393	     -0.00201750	    -14.10191325	     33.00967643	    -16.65661167	     95.57821813	     89.99559364	      0.00000000	      0.00000000	     -0.00140872	     -0.01894904	     -0.00141910	     -5.67119979	     32.68177083	      0.12864887	     27.41309146	     89.99559364	      0.00000000	      0.00000000
